<svg width="345" height="454" viewBox="0 0 345 454" fill="none" xmlns="http://www.w3.org/2000/svg">
<path d="M342.009 451L2.99428 451" stroke="#004AAD" stroke-width="3.93983" stroke-linecap="round"/>
<path d="M2.854 451.12L2.854 225.115" stroke="#004AAD" stroke-width="3.93866" stroke-linecap="round"/>
<path d="M1 0H344V226H1V0Z" fill="#004AAD"/>
<path d="M342.377 451.115V226.115" stroke="#004AAD" stroke-width="3.81566" stroke-linecap="round"/>
<path d="M111.897 211.893C104.86 211.893 100.29 211.409 98.1871 210.435C96.0942 209.451 93.8508 206.487 91.4567 201.539L62.4992 130.122L95.9644 49.7058H96.8576C101.646 49.7058 104.824 49.8621 106.392 50.1641C107.971 50.4714 108.761 51.0756 108.761 51.9766C108.761 52.8673 98.426 78.9141 77.7673 130.122L112.79 211.893H111.897ZM46.3171 211.893H45.4238V49.7058H46.3171C52.7567 49.7058 56.5374 50.1589 57.6591 51.06C58.7808 51.9662 59.3417 54.9714 59.3417 60.0808V201.539C59.3417 206.638 58.7808 209.638 57.6591 210.539C56.5374 211.445 52.7567 211.893 46.3171 211.893Z" fill="white"/>
<path d="M206.57 194.227C201.252 207.06 190.803 213.477 175.223 213.477C159.654 213.477 149.179 207.06 143.794 194.227C138.403 181.383 135.713 159.831 135.713 129.581C135.713 99.3204 138.403 77.9923 143.794 65.6016C149.179 53.2162 159.654 47.0183 175.223 47.0183C190.803 47.0183 201.252 53.2162 206.57 65.6016C211.888 77.9923 214.546 99.3204 214.546 129.581C214.546 159.831 211.888 181.383 206.57 194.227ZM175.244 200.622C184.675 200.622 191.073 194.883 194.438 183.393C197.803 171.909 199.486 154.008 199.486 129.685C199.486 106.258 197.913 89.06 194.771 78.1016C191.182 65.935 184.675 59.8516 175.244 59.8516C165.813 59.8516 159.374 65.4506 155.925 76.6433C152.477 87.8256 150.753 103.445 150.753 123.497C150.753 143.539 151.355 158.435 152.56 168.185C155.245 189.81 162.806 200.622 175.244 200.622Z" fill="white"/>
<rect x="2.99414" y="226" width="339.014" height="225" fill="white"/>
<path d="M321.683 211.893C314.038 211.893 309.313 211.445 307.516 210.539C305.729 209.638 303.704 206.638 301.45 201.539L271.142 134.852H259.239L260.133 140.497V201.539H260.361C260.361 206.638 259.8 209.638 258.679 210.539C257.557 211.445 253.776 211.893 247.337 211.893H245.986V49.2683L271.579 47.0183C287.158 47.0183 297.192 50.0183 301.679 56.0183C303.475 58.4246 304.826 60.5287 305.729 62.3308C306.628 64.1381 307.298 66.9141 307.744 70.6641C308.336 75.6225 308.638 81.6746 308.638 88.81C308.638 95.935 308.523 101.341 308.305 105.018C308.082 108.701 307.521 112.534 306.623 116.518C305.719 120.492 304.447 123.602 302.8 125.852C299.061 131.102 293.224 134.029 285.289 134.622L322.576 211.893H321.683ZM271.579 122.018C279.223 122.018 285.143 120.596 289.339 117.747C291.874 115.789 293.369 110.831 293.826 102.872C293.977 100.471 294.055 96.4923 294.055 90.935C294.055 85.3829 293.977 81.4037 293.826 78.9975C293.671 76.5964 293.255 73.8204 292.58 70.6641C291.915 67.5131 290.835 65.3308 289.339 64.1225C285.143 61.2787 279.223 59.8516 271.579 59.8516H260.133V116.393L259.239 122.018H271.579Z" fill="white"/>
<path d="M60.6872 414.216H58.9007V269.612L59.794 263.966H34.6379V252.028H98.2032V263.966H72.8186L73.7326 269.612V403.862C73.7326 408.961 73.1614 411.961 72.0292 412.862C70.9075 413.768 67.1268 414.216 60.6872 414.216Z" fill="black"/>
<path d="M194.784 414.216C188.038 414.216 184.028 413.768 182.756 412.862C181.494 411.961 180.263 408.961 179.058 403.862L169.17 359.028H135.041L122.909 414.216C120.51 414.216 118.412 414.216 116.615 414.216C114.828 414.216 113.333 414.07 112.128 413.778C110.934 413.476 110.186 413.101 109.884 412.653C109.578 412.195 109.427 411.445 109.427 410.403C109.427 409.351 121.258 356.56 144.928 252.028H159.303L195.905 414.216H194.784ZM167.613 346.632L165.577 341.007L154.359 280.862H150.08L139.07 341.007L137.056 346.632H167.613Z" fill="black"/>
<path d="M232.51 414.216H231.389C224.949 414.216 221.168 413.768 220.047 412.862C218.925 411.961 218.364 408.961 218.364 403.862V252.028H219.486C225.925 252.028 229.706 252.481 230.828 253.382C231.95 254.289 232.51 257.294 232.51 262.403V414.216Z" fill="black"/>
<path d="M322.123 414.216H266.203V252.028H267.989C274.429 252.028 278.209 252.481 279.331 253.382C280.453 254.289 281.014 257.294 281.014 262.403V395.737L280.121 401.382H309.099C315.538 401.382 319.319 401.836 320.441 402.737C321.563 403.627 322.123 406.627 322.123 411.737V414.216Z" fill="black"/>
</svg>
